<svg width="46" height="46" viewBox="0 0 46 46" fill="none" xmlns="http://www.w3.org/2000/svg">
<rect x="0.65625" y="0.21875" width="45" height="45" rx="10" fill="white"/>
<g clip-path="url(#clip0_5_4012)">
<path d="M17.3354 16.7772C17.3354 16.7772 17.7348 16.367 18.5338 15.5467C19.3328 14.7263 20.8736 14.3161 23.1564 14.3161C25.4391 14.3161 27.3795 15.1365 28.9774 16.7772C30.5753 18.418 31.3743 20.4082 31.3743 22.748V29.2967C31.3743 30.0671 31.1032 30.7305 30.561 31.287C30.0189 31.8434 29.3769 32.1216 28.635 32.1216H25.8957V24.5885H29.5338V22.748C29.5338 20.9218 28.9132 19.3739 27.6719 18.1041C26.4307 16.8343 24.9255 16.1994 23.1564 16.1994C21.3872 16.1994 19.8821 16.8343 18.6408 18.1041C17.3996 19.3739 16.7789 20.9218 16.7789 22.748V24.5885H20.4171V32.1216H17.6778C16.9359 32.1216 16.2939 31.8434 15.7517 31.287C15.2096 30.7305 14.9385 30.0671 14.9385 29.2967V22.748C14.9385 20.4082 15.7374 18.418 17.3354 16.7772Z" fill="black"/>
</g>
<defs>
<clipPath id="clip0_5_4012">
<rect width="16.5" height="22" fill="white" transform="matrix(1 0 0 -1 14.9062 34.2188)"/>
</clipPath>
</defs>
</svg>
